<?xml version="1.0" encoding="UTF-8" standalone="no"?>
<!DOCTYPE svg PUBLIC "-//W3C//DTD SVG 1.1//EN" "http://www.w3.org/Graphics/SVG/1.1/DTD/svg11.dtd">
<svg width="100%" height="100%" viewBox="0 0 900 900" version="1.1" xmlns="http://www.w3.org/2000/svg" xmlns:xlink="http://www.w3.org/1999/xlink" xml:space="preserve" xmlns:serif="http://www.serif.com/" style="fill-rule:evenodd;clip-rule:evenodd;stroke-linejoin:round;stroke-miterlimit:2;">
    <g transform="matrix(0.875346,0,0,1.18066,51.7064,-86.7893)">
        <path d="M720.622,356.188C720.622,301.846 661.114,257.727 587.817,257.727L322.208,257.727C248.911,257.727 189.404,301.846 189.404,356.188L189.404,553.111C189.404,607.454 248.911,651.573 322.208,651.573L587.817,651.573C661.114,651.573 720.622,607.454 720.622,553.111L720.622,356.188Z" style="fill:white;"/>
    </g>
    <g transform="matrix(0.978483,0,0,1.00658,-44.872,-101.38)">
        <path d="M505.754,324.246C632.666,324.246 735.702,424.406 735.702,547.774C735.702,671.143 632.666,771.303 505.754,771.303C378.843,771.303 275.807,671.143 275.807,547.774C275.807,424.406 378.843,324.246 505.754,324.246ZM505.754,380.128C600.938,380.128 678.215,455.248 678.215,547.774C678.215,640.301 600.938,715.421 505.754,715.421C410.571,715.421 333.294,640.301 333.294,547.774C333.294,455.248 410.571,380.128 505.754,380.128Z" style="fill:rgb(255,0,0);"/>
    </g>
    <g transform="matrix(-2.21901,0,0,2.55946,1354.82,-403.779)">
        <path d="M363.98,292.137C351.303,303.128 344.181,318.034 344.181,333.578C344.181,349.121 351.303,364.028 363.98,375.019L375.93,364.658C366.422,356.415 361.081,345.235 361.081,333.578C361.081,321.92 366.422,310.74 375.93,302.497L363.98,292.137Z" style="fill:rgb(91,94,98);"/>
    </g>
    <g transform="matrix(-1.66426,0,0,1.9196,1096.39,-190.334)">
        <path d="M363.98,292.137C351.303,303.128 344.181,318.034 344.181,333.578C344.181,349.121 351.303,364.028 363.98,375.019L375.93,364.658C366.422,356.415 361.081,345.235 361.081,333.578C361.081,321.92 366.422,310.74 375.93,302.497L363.98,292.137Z" style="fill:rgb(91,94,98);"/>
    </g>
    <g transform="matrix(1,0,0,1,60.7052,4.7206)">
        <g transform="matrix(0.607889,0,0,0.91083,128.348,-9.55328)">
            <rect x="197.188" y="445.838" width="123.378" height="107.045" style="fill:rgb(91,94,98);"/>
        </g>
        <g transform="matrix(5.25652e-17,-0.858455,0.594612,3.64095e-17,64.085,817.067)">
            <path d="M544.643,552.37L321.535,552.37L377.312,434.117L488.866,434.117L544.643,552.37Z" style="fill:rgb(91,94,98);"/>
        </g>
    </g>
    <g transform="matrix(0.22276,0.22276,-1.15331,1.15331,879.093,-189.932)">
        <rect x="354.207" y="330.11" width="238.072" height="266.704" style="fill:rgb(255,0,0);"/>
    </g>
</svg>
